<svg width="133" height="36" viewBox="0 0 133 36" fill="none" xmlns="http://www.w3.org/2000/svg">
<path fill-rule="evenodd" clip-rule="evenodd" d="M19.9636 30.5045C22.8458 30.176 25.5301 28.9075 27.5819 26.9042C29.6338 24.901 30.9331 22.2803 31.2695 19.4664H26.4256C26.1201 21.0281 25.3404 22.4639 24.188 23.5872C23.0356 24.7105 21.5637 25.4694 19.9636 25.7651V30.5045Z" fill="#A4A3F5"/>
<path fill-rule="evenodd" clip-rule="evenodd" d="M24.2664 6.75825L24.2969 6.73877C27.4312 4.98047 29.9656 4.46343 31.1456 5.61647C34.4838 8.87455 25.0702 19.0089 22.2816 21.7315C20.6045 23.3736 18.8273 24.9152 16.9596 26.3477V30.5014C15.458 30.335 13.999 29.9076 12.6516 29.2396L12.6211 29.2591C9.48678 31.0174 6.95349 31.5344 5.77246 30.3875C4.15433 28.8077 6.04772 25.1711 6.94295 23.6703C6.26295 22.3531 5.82551 20.9294 5.65056 19.4643H10.5049C10.7172 20.5643 11.1662 21.6078 11.8223 22.5258C12.4784 23.4438 13.3265 24.2153 14.3107 24.7895C13.7507 25.1865 13.1812 25.564 12.5906 25.9179C11.7259 26.4544 10.8307 26.9612 9.90393 27.4177C9.17864 26.7906 8.52991 26.0839 7.97059 25.3116C6.99341 27.1499 6.66769 28.501 7.18675 29.0047C9.41536 31.1589 19.4393 22.1695 21.0879 20.5599C22.8431 18.8486 24.4849 17.0299 26.0033 15.1148C25.5029 13.8664 24.6856 12.7628 23.6282 11.9077C22.5707 11.0526 21.3079 10.4741 19.9584 10.2266V5.48722C21.4603 5.65219 22.9195 6.0796 24.2664 6.74901V6.75825ZM28.9474 10.6831C29.9246 8.84482 30.2503 7.49378 29.7313 6.99009C29.2122 6.4864 27.84 6.8116 25.956 7.76564C27.1142 8.5681 28.1255 9.55546 28.9474 10.6862V10.6831Z" fill="#0560FD"/>
<path fill-rule="evenodd" clip-rule="evenodd" d="M16.9617 5.49646C14.0794 5.8252 11.3952 7.09395 9.34334 9.09736C7.29152 11.1008 5.99221 13.7216 5.65576 16.5356H10.5102C10.8116 14.9737 11.5885 13.537 12.7395 12.4131C13.8905 11.2892 15.362 10.5304 16.9617 10.2359V5.49646Z" fill="#A4A3F5"/>
<path d="M50.3398 25.24C54.0398 25.24 56.7198 23.32 56.9998 19.62H52.9198C52.7198 21.2 51.6998 21.96 50.2598 21.96C48.2998 21.96 47.1998 20.5 47.1998 17.92V17.76C47.1998 15.16 48.3598 13.72 50.1998 13.72C51.6398 13.72 52.4398 14.52 52.5998 15.98H56.8198C56.4798 12.2 53.8998 10.48 50.1798 10.48C45.9998 10.48 42.8798 13.38 42.8798 17.78V17.94C42.8798 22.32 45.3398 25.24 50.3398 25.24ZM63.3533 22.58C61.9733 22.58 61.2733 21.6 61.2733 19.8V19.64C61.2733 17.88 62.0133 16.94 63.3533 16.94C64.7133 16.94 65.4133 17.92 65.4133 19.68V19.84C65.4133 21.58 64.6933 22.58 63.3533 22.58ZM63.3333 25.24C66.5533 25.24 69.0533 23.2 69.0533 19.8V19.64C69.0533 16.32 66.5733 14.26 63.3533 14.26C60.1133 14.26 57.6133 16.38 57.6133 19.74V19.9C57.6133 23.28 60.1133 25.24 63.3333 25.24ZM72.6469 25H76.5469L80.3669 14.54H76.9469L74.8069 21.28L72.6269 14.54H68.8069L72.6469 25ZM83.7117 25.24C85.3917 25.24 86.3117 24.54 86.8117 23.78V25H90.2917V18.22C90.2917 15.44 88.4517 14.26 85.5717 14.26C82.7117 14.26 80.7317 15.5 80.5717 18.02H83.9317C84.0117 17.36 84.3717 16.78 85.3517 16.78C86.4917 16.78 86.7317 17.44 86.7317 18.44V18.68H85.7317C82.2517 18.68 80.1717 19.64 80.1717 22.1C80.1717 24.32 81.8317 25.24 83.7117 25.24ZM84.9517 22.82C84.1117 22.82 83.7117 22.44 83.7117 21.84C83.7117 20.98 84.3517 20.7 85.7917 20.7H86.7317V21.34C86.7317 22.24 85.9717 22.82 84.9517 22.82ZM92.0342 25H95.5942V9.94H92.0342V25ZM102.533 25.24C105.693 25.24 107.513 23.9 107.833 21.54H104.473C104.333 22.24 103.833 22.78 102.653 22.78C101.373 22.78 100.573 21.98 100.473 20.6H107.833V19.66C107.833 15.9 105.373 14.26 102.513 14.26C99.3531 14.26 96.8531 16.38 96.8531 19.74V19.9C96.8531 23.32 99.2531 25.24 102.533 25.24ZM100.513 18.58C100.693 17.32 101.433 16.62 102.513 16.62C103.673 16.62 104.293 17.32 104.353 18.58H100.513ZM108.966 25H112.546V19.14C112.546 17.8 113.266 17.16 114.326 17.16C115.366 17.16 115.826 17.74 115.826 18.92V25H119.406V18.2C119.406 15.52 118.006 14.26 115.986 14.26C114.246 14.26 113.106 15.14 112.546 16.22V14.54H108.966V25ZM125.207 25.24C126.047 25.24 126.727 25.06 127.187 24.94V22.22C126.867 22.34 126.567 22.4 126.167 22.4C125.487 22.4 125.107 22.06 125.107 21.3V16.98H127.167V14.54H125.107V12.36H121.527V14.54H120.267V16.98H121.527V21.64C121.527 24.1 122.847 25.24 125.207 25.24Z" fill="black"/>
</svg>
